<mxfile host="app.diagrams.net" modified="2023-06-26T06:23:56.818Z" agent="Mozilla/5.0 (Macintosh; Intel Mac OS X 10_15_7) AppleWebKit/537.36 (KHTML, like Gecko) Chrome/114.0.0.0 Safari/537.36" etag="IS8Ls6LErzEvMBUmqadj" version="21.3.7" type="github">
  <diagram name="Page-1" id="cK8qp4Y5bkZ6OLdsQ2qg">
    <mxGraphModel dx="954" dy="545" grid="1" gridSize="10" guides="1" tooltips="1" connect="1" arrows="1" fold="1" page="1" pageScale="1" pageWidth="827" pageHeight="1169" math="0" shadow="0">
      <root>
        <mxCell id="0" />
        <mxCell id="1" parent="0" />
        <mxCell id="O9Ht-Uzq7RCht8-rPUxs-1" value="" style="whiteSpace=wrap;html=1;aspect=fixed;fillStyle=solid;fillColor=#0050ef;strokeColor=#001DBC;fontColor=#ffffff;" parent="1" vertex="1">
          <mxGeometry x="40" y="40" width="830" height="830" as="geometry" />
        </mxCell>
        <mxCell id="O9Ht-Uzq7RCht8-rPUxs-2" value="" style="rounded=0;whiteSpace=wrap;html=1;fillColor=#60a917;strokeColor=#2D7600;fontColor=#ffffff;" parent="1" vertex="1">
          <mxGeometry x="290" y="180" width="220" height="230" as="geometry" />
        </mxCell>
        <mxCell id="O9Ht-Uzq7RCht8-rPUxs-4" value="&lt;b&gt;Cron Jobs&lt;/b&gt;" style="rounded=0;whiteSpace=wrap;html=1;fillColor=#60a917;strokeColor=#2D7600;fontColor=#ffffff;" parent="1" vertex="1">
          <mxGeometry x="340" y="225" width="120" height="60" as="geometry" />
        </mxCell>
        <mxCell id="O9Ht-Uzq7RCht8-rPUxs-16" value="" style="image;html=1;image=img/lib/clip_art/computers/Database_128x128.png" parent="1" vertex="1">
          <mxGeometry x="110" y="230" width="80" height="80" as="geometry" />
        </mxCell>
        <mxCell id="O9Ht-Uzq7RCht8-rPUxs-19" value="Shared Database Information from Central db" style="text;html=1;strokeColor=none;fillColor=none;align=center;verticalAlign=middle;whiteSpace=wrap;rounded=0;" parent="1" vertex="1">
          <mxGeometry x="80" y="320" width="140" height="30" as="geometry" />
        </mxCell>
        <mxCell id="O9Ht-Uzq7RCht8-rPUxs-20" value="" style="endArrow=classic;html=1;rounded=0;entryX=0;entryY=0.5;entryDx=0;entryDy=0;" parent="1" source="O9Ht-Uzq7RCht8-rPUxs-16" edge="1">
          <mxGeometry width="50" height="50" relative="1" as="geometry">
            <mxPoint x="370" y="310" as="sourcePoint" />
            <mxPoint x="275" y="270" as="targetPoint" />
          </mxGeometry>
        </mxCell>
        <mxCell id="O9Ht-Uzq7RCht8-rPUxs-21" value="Cloud&#xa;Storage" style="sketch=0;html=1;verticalAlign=top;labelPosition=center;verticalLabelPosition=bottom;align=center;spacingTop=-6;fontSize=11;fontStyle=1;fontColor=#999999;shape=image;aspect=fixed;imageAspect=0;image=data:image/svg+xml,PHN2ZyB4bWxucz0iaHR0cDovL3d3dy53My5vcmcvMjAwMC9zdmciIHhtbG5zOnY9Imh0dHBzOi8vdmVjdGEuaW8vbmFubyIgd2lkdGg9IjIwIiBoZWlnaHQ9IjE2IiB2aWV3Qm94PSIwIDAgMjAgMTYiPiYjeGE7CTxzdHlsZSB0eXBlPSJ0ZXh0L2NzcyI+JiN4YTsJLnN0MHtmaWxsOiM0Mjg1ZjQ7fSYjeGE7CS5zdDF7ZmlsbDojNjY5ZGY2O30mI3hhOwkuc3Qye2ZpbGw6I2FlY2JmYTt9JiN4YTsJLnN0M3tmaWxsOiNmZmY7fSYjeGE7CTwvc3R5bGU+JiN4YTsJPHBhdGggY2xhc3M9InN0MiIgZD0iTTAgMGgyMHY3SDB6Ii8+JiN4YTsJPHBhdGggY2xhc3M9InN0MSIgZD0iTTE4IDBoMnY3aC0yeiIvPiYjeGE7CTxwYXRoIGNsYXNzPSJzdDAiIGQ9Ik0xOCA3bDItN2gtMnoiLz4mI3hhOwk8cGF0aCBjbGFzcz0ic3QxIiBkPSJNMCAwaDJ2N0gweiIvPiYjeGE7CTxnIGNsYXNzPSJzdDMiPiYjeGE7CQk8cGF0aCBkPSJNNCAzaDZ2MUg0eiIvPiYjeGE7CQk8cmVjdCB4PSIxMyIgeT0iMiIgd2lkdGg9IjMiIGhlaWdodD0iMyIgcng9IjEuNSIvPiYjeGE7CTwvZz4mI3hhOwk8cGF0aCBjbGFzcz0ic3QyIiBkPSJNMCA5aDIwdjdIMHoiLz4mI3hhOwk8cGF0aCBjbGFzcz0ic3QxIiBkPSJNMTggOWgydjdoLTJ6Ii8+JiN4YTsJPHBhdGggY2xhc3M9InN0MCIgZD0iTTE4IDE2bDItN2gtMnoiLz4mI3hhOwk8cGF0aCBjbGFzcz0ic3QxIiBkPSJNMCA5aDJ2N0gweiIvPiYjeGE7CTxnIGNsYXNzPSJzdDMiPiYjeGE7CQk8cGF0aCBkPSJNNCAxMmg2djFINHoiLz4mI3hhOwkJPHJlY3QgeD0iMTMiIHk9IjExIiB3aWR0aD0iMyIgaGVpZ2h0PSIzIiByeD0iMS41Ii8+JiN4YTsJPC9nPiYjeGE7PC9zdmc+;" parent="1" vertex="1">
          <mxGeometry x="740" y="323" width="107.47" height="87" as="geometry" />
        </mxCell>
        <mxCell id="O9Ht-Uzq7RCht8-rPUxs-23" value="" style="endArrow=classic;html=1;rounded=0;entryX=1;entryY=0.5;entryDx=0;entryDy=0;exitX=0;exitY=0.613;exitDx=0;exitDy=0;exitPerimeter=0;" parent="1" source="O9Ht-Uzq7RCht8-rPUxs-24" target="IxQmqOu_6Y5APmHzRj7O-6" edge="1">
          <mxGeometry width="50" height="50" relative="1" as="geometry">
            <mxPoint x="740" y="269.5" as="sourcePoint" />
            <mxPoint x="655" y="269.5" as="targetPoint" />
          </mxGeometry>
        </mxCell>
        <mxCell id="O9Ht-Uzq7RCht8-rPUxs-24" value="" style="image;aspect=fixed;perimeter=ellipsePerimeter;html=1;align=center;shadow=0;dashed=0;spacingTop=3;image=img/lib/active_directory/database_server.svg;" parent="1" vertex="1">
          <mxGeometry x="747" y="93.66" width="80" height="97.56" as="geometry" />
        </mxCell>
        <mxCell id="O9Ht-Uzq7RCht8-rPUxs-25" value="Dump the shared database once in 24 hours" style="text;html=1;strokeColor=none;fillColor=none;align=center;verticalAlign=middle;whiteSpace=wrap;rounded=0;" parent="1" vertex="1">
          <mxGeometry x="725" y="199.99999999999997" width="110" height="30" as="geometry" />
        </mxCell>
        <mxCell id="O9Ht-Uzq7RCht8-rPUxs-26" value="" style="endArrow=classic;html=1;rounded=0;exitX=1;exitY=0.75;exitDx=0;exitDy=0;entryX=0;entryY=0.25;entryDx=0;entryDy=0;" parent="1" source="O9Ht-Uzq7RCht8-rPUxs-4" edge="1" target="O9Ht-Uzq7RCht8-rPUxs-21">
          <mxGeometry width="50" height="50" relative="1" as="geometry">
            <mxPoint x="640" y="280" as="sourcePoint" />
            <mxPoint x="775" y="400" as="targetPoint" />
          </mxGeometry>
        </mxCell>
        <mxCell id="O9Ht-Uzq7RCht8-rPUxs-27" value="Upload to GCS" style="text;html=1;strokeColor=none;fillColor=none;align=center;verticalAlign=middle;whiteSpace=wrap;rounded=0;" parent="1" vertex="1">
          <mxGeometry x="743.73" y="450" width="100" height="50" as="geometry" />
        </mxCell>
        <mxCell id="IxQmqOu_6Y5APmHzRj7O-2" value="" style="image;aspect=fixed;perimeter=ellipsePerimeter;html=1;align=center;shadow=0;dashed=0;spacingTop=3;image=img/lib/active_directory/database_server.svg;" vertex="1" parent="1">
          <mxGeometry x="540" y="93.66" width="80" height="97.56" as="geometry" />
        </mxCell>
        <mxCell id="IxQmqOu_6Y5APmHzRj7O-3" value="Incremental Backup based on oplog entries" style="text;html=1;strokeColor=none;fillColor=none;align=center;verticalAlign=middle;whiteSpace=wrap;rounded=0;" vertex="1" parent="1">
          <mxGeometry x="420" y="127.43999999999997" width="110" height="30" as="geometry" />
        </mxCell>
        <mxCell id="IxQmqOu_6Y5APmHzRj7O-4" value="Go Application" style="text;html=1;strokeColor=none;fillColor=none;align=center;verticalAlign=middle;whiteSpace=wrap;rounded=0;" vertex="1" parent="1">
          <mxGeometry x="320" y="191.22" width="90" height="30" as="geometry" />
        </mxCell>
        <mxCell id="IxQmqOu_6Y5APmHzRj7O-5" value="" style="endArrow=classic;html=1;rounded=0;exitX=0;exitY=0.75;exitDx=0;exitDy=0;entryX=1;entryY=0.25;entryDx=0;entryDy=0;" edge="1" parent="1" source="IxQmqOu_6Y5APmHzRj7O-2" target="O9Ht-Uzq7RCht8-rPUxs-4">
          <mxGeometry width="50" height="50" relative="1" as="geometry">
            <mxPoint x="510" y="260" as="sourcePoint" />
            <mxPoint x="460" y="310" as="targetPoint" />
          </mxGeometry>
        </mxCell>
        <mxCell id="IxQmqOu_6Y5APmHzRj7O-6" value="&lt;b&gt;Cron Jobs&lt;/b&gt;" style="rounded=0;whiteSpace=wrap;html=1;fillColor=#60a917;strokeColor=#2D7600;fontColor=#ffffff;" vertex="1" parent="1">
          <mxGeometry x="340" y="300" width="120" height="60" as="geometry" />
        </mxCell>
        <mxCell id="IxQmqOu_6Y5APmHzRj7O-7" value="" style="outlineConnect=0;dashed=0;verticalLabelPosition=bottom;verticalAlign=top;align=center;html=1;shape=mxgraph.aws3.application;fillColor=#F58534;gradientColor=none;direction=east;" vertex="1" parent="1">
          <mxGeometry x="300" y="186.38" width="20" height="57.25" as="geometry" />
        </mxCell>
        <mxCell id="IxQmqOu_6Y5APmHzRj7O-8" value="" style="endArrow=classic;html=1;rounded=0;exitX=1;exitY=0.75;exitDx=0;exitDy=0;" edge="1" parent="1">
          <mxGeometry width="50" height="50" relative="1" as="geometry">
            <mxPoint x="467" y="329" as="sourcePoint" />
            <mxPoint x="740" y="400" as="targetPoint" />
          </mxGeometry>
        </mxCell>
      </root>
    </mxGraphModel>
  </diagram>
</mxfile>
